<?xml version="1.0" standalone="no"?>
<!DOCTYPE svg PUBLIC "-//W3C//DTD SVG 20010904//EN"
 "http://www.w3.org/TR/2001/REC-SVG-20010904/DTD/svg10.dtd">
<svg version="1.0" xmlns="http://www.w3.org/2000/svg"
 width="512.000000pt" height="512.000000pt" viewBox="0 0 512.000000 512.000000"
 preserveAspectRatio="xMidYMid meet">

<g transform="translate(0.000000,512.000000) scale(0.100000,-0.100000)"
fill="#ffffff" stroke="none">
<path d="M1905 5100 c-92 -45 -122 -157 -65 -241 l30 -44 0 -1772 0 -1773
-876 0 c-505 0 -874 -4 -872 -9 11 -29 277 -317 447 -483 318 -311 595 -521
856 -648 219 -107 369 -137 638 -126 426 16 825 110 1342 316 505 201 1075
515 1560 860 l120 85 -1497 3 -1498 2 0 1772 0 1772 26 37 c48 69 42 149 -15
213 -52 57 -126 71 -196 36z m345 -4301 c0 -6 -34 -90 -75 -187 -117 -275
-110 -262 -145 -262 l-30 0 14 33 c86 201 170 395 176 407 9 18 60 25 60 9z
m-347 -107 c16 -17 13 -21 -48 -71 -36 -28 -65 -55 -65 -60 0 -4 28 -30 63
-56 34 -27 64 -50 66 -52 3 -2 -5 -13 -16 -25 l-21 -21 -74 60 c-124 102 -122
88 -20 171 48 39 90 72 93 72 3 0 13 -8 22 -18z m577 -53 c47 -40 86 -74 87
-78 1 -3 -39 -39 -89 -80 -90 -73 -90 -73 -110 -54 -19 20 -19 20 44 73 35 29
64 56 66 60 1 4 -27 31 -63 60 -36 30 -65 56 -65 60 0 10 23 30 35 30 6 0 49
-32 95 -71z"/>
<path d="M2225 4828 c3 -12 14 -72 26 -133 184 -1002 238 -1489 226 -2020 -10
-421 -72 -728 -202 -1002 -25 -53 -45 -100 -45 -104 0 -5 550 -9 1245 -9 685
0 1245 2 1245 6 0 3 -34 80 -76 172 -349 765 -793 1449 -1349 2079 -188 213
-627 649 -863 858 -106 94 -197 172 -203 173 -6 3 -8 -6 -4 -20z"/>
<path d="M1720 3628 c-151 -616 -463 -1059 -1140 -1618 -171 -141 -438 -371
-475 -409 l-39 -41 842 0 842 0 0 1080 c0 594 -2 1080 -3 1080 -2 0 -14 -42
-27 -92z"/>
</g>
</svg>
